<?xml version="1.0" encoding="UTF-8"?>
<svg id="Layer_1" xmlns="http://www.w3.org/2000/svg" version="1.1" viewBox="0 0 32 32">
  <!-- Generator: Adobe Illustrator 30.3.0, SVG Export Plug-In . SVG Version: 2.1.3 Build 182)  -->
  <defs>
    <style>
      .st0 {
        fill: #6bf9f2;
      }

      .st1 {
        fill: #fff;
      }

      .st2, .st3 {
        fill: #8eef97;
      }

      .st4, .st3 {
        display: none;
      }
    </style>
  </defs>
  <path class="st3" d="M10,12v5h2v-5h-2ZM9,19c0,1.1.9,2,2,2h10c1.1,0,2-.9,2-2h-14Z"/>
  <path class="st3" d="M29,32H3c-1.7,0-3-1.3-3-3V3C0,1.4,1.4,0,3,0h25.9c1.7,0,3,1.3,3,3v25.9c0,1.7-1.3,3-3,3ZM6,26h19.9V6H6v19.9Z"/>
  <g class="st4">
    <path class="st2" d="M29.2,8.4l-2.6,2.9-5.8-5.8,2.7-2.7c.6-.6,1.5-.6,2.1,0l3.5,3.5c.6.6.6,1.5,0,2.1ZM2.4,23.9v5.8h5.8L24.9,12.8l-5.6-5.8L2.4,23.9Z"/>
    <path class="st1" d="M24.6,2.4c.4,0,.8.2,1.1.5l3.5,3.5c.6.6.6,1.5,0,2.1l-2.6,2.9-5.8-5.8,2.7-2.7c.3-.3.7-.5,1.1-.5M19.3,7.1l5.6,5.8L8.1,29.6H2.4v-5.8L19.3,7.1M24.6,0c-1,0-2,.4-2.7,1.1l-2.7,2.7-1.5,1.5L.7,22.2,0,22.9v9.1h9.1l.7-.7L26.5,14.5l.2.2,1.7-1.8,2.5-2.8c.7-.7,1.1-1.7,1.1-2.7s-.4-2-1.1-2.7l-3.5-3.5C26.6.4,25.7,0,24.6,0h0Z"/>
  </g>
  <g>
    <path class="st0" d="M29.2,8.4l-2.6,2.9-5.8-5.8,2.7-2.7c.6-.6,1.5-.6,2.1,0l3.5,3.5c.6.6.6,1.5,0,2.1ZM2.4,23.9v5.8h5.8L24.9,12.8l-5.6-5.8L2.4,23.9Z"/>
    <g>
      <path class="st0" d="M27.4,1.2l3.5,3.5c.7.7,1.1,1.5,1.1,2.5V3c0-1.7-1.3-3-3-3h-4.1c.9,0,1.8.4,2.5,1.1Z"/>
      <polygon class="st0" points="6 26 6 20.2 2.4 23.9 2.4 29.6 8.1 29.6 11.8 26 6 26"/>
      <path class="st0" d="M.7,22.2l5.3-5.3V6h11l.7-.7,1.5-1.5,2.7-2.7c.7-.7,1.5-1.1,2.5-1.1H3C1.4,0,0,1.4,0,3v19.8l.7-.7Z"/>
      <path class="st0" d="M26.6,11.3l2.6-2.9c.6-.6.6-1.5,0-2.1l-3.5-3.5c-.3-.3-.7-.5-1.1-.5s-.8.2-1.1.5l-2.7,2.7.5.5h4.6v4.6l.7.7Z"/>
      <path class="st0" d="M30.9,10l-2.5,2.8-2.4,2.3v10.8h-10.8l-5.3,5.3-.7.7h19.8c1.7,0,3-1.3,3-3V7.6c0,.9-.4,1.7-1.1,2.4Z"/>
    </g>
  </g>
</svg>